<mxfile host="app.diagrams.net" agent="Mozilla/5.0 (X11; Linux x86_64; rv:139.0) Gecko/20100101 Firefox/139.0" version="27.0.3">
  <diagram name="Page-1" id="XJ4LuH7A2adHzsDturFl">
    <mxGraphModel dx="843" dy="533" grid="1" gridSize="10" guides="1" tooltips="1" connect="1" arrows="1" fold="1" page="1" pageScale="1" pageWidth="850" pageHeight="1100" math="0" shadow="0">
      <root>
        <mxCell id="0" />
        <mxCell id="1" parent="0" />
        <mxCell id="qc9Q0B2m5h8A3anUrLEf-1" value="" style="shape=table;startSize=0;container=1;collapsible=0;childLayout=tableLayout;" parent="1" vertex="1">
          <mxGeometry x="120" y="120" width="680" height="620" as="geometry" />
        </mxCell>
        <mxCell id="qc9Q0B2m5h8A3anUrLEf-2" value="" style="shape=tableRow;horizontal=0;startSize=0;swimlaneHead=0;swimlaneBody=0;strokeColor=inherit;top=0;left=0;bottom=0;right=0;collapsible=0;dropTarget=0;fillColor=none;points=[[0,0.5],[1,0.5]];portConstraint=eastwest;" parent="qc9Q0B2m5h8A3anUrLEf-1" vertex="1">
          <mxGeometry width="680" height="40" as="geometry" />
        </mxCell>
        <mxCell id="qc9Q0B2m5h8A3anUrLEf-3" value="Use Case ID" style="shape=partialRectangle;html=1;whiteSpace=wrap;connectable=0;strokeColor=inherit;overflow=hidden;fillColor=none;top=0;left=0;bottom=0;right=0;pointerEvents=1;fontStyle=1" parent="qc9Q0B2m5h8A3anUrLEf-2" vertex="1">
          <mxGeometry width="110" height="40" as="geometry">
            <mxRectangle width="110" height="40" as="alternateBounds" />
          </mxGeometry>
        </mxCell>
        <mxCell id="qc9Q0B2m5h8A3anUrLEf-4" value="4" style="shape=partialRectangle;html=1;whiteSpace=wrap;connectable=0;strokeColor=inherit;overflow=hidden;fillColor=none;top=0;left=0;bottom=0;right=0;pointerEvents=1;" parent="qc9Q0B2m5h8A3anUrLEf-2" vertex="1">
          <mxGeometry x="110" width="40" height="40" as="geometry">
            <mxRectangle width="40" height="40" as="alternateBounds" />
          </mxGeometry>
        </mxCell>
        <mxCell id="qc9Q0B2m5h8A3anUrLEf-5" value="Use Case name" style="shape=partialRectangle;html=1;whiteSpace=wrap;connectable=0;strokeColor=inherit;overflow=hidden;fillColor=none;top=0;left=0;bottom=0;right=0;pointerEvents=1;fontStyle=1" parent="qc9Q0B2m5h8A3anUrLEf-2" vertex="1">
          <mxGeometry x="150" width="110" height="40" as="geometry">
            <mxRectangle width="110" height="40" as="alternateBounds" />
          </mxGeometry>
        </mxCell>
        <mxCell id="qc9Q0B2m5h8A3anUrLEf-6" value="Filter Laptop" style="shape=partialRectangle;html=1;whiteSpace=wrap;connectable=0;strokeColor=inherit;overflow=hidden;fillColor=none;top=0;left=0;bottom=0;right=0;pointerEvents=1;" parent="qc9Q0B2m5h8A3anUrLEf-2" vertex="1">
          <mxGeometry x="260" width="420" height="40" as="geometry">
            <mxRectangle width="420" height="40" as="alternateBounds" />
          </mxGeometry>
        </mxCell>
        <mxCell id="e9ZG9q7FVogHayvx7YNw-71" style="shape=tableRow;horizontal=0;startSize=0;swimlaneHead=0;swimlaneBody=0;strokeColor=inherit;top=0;left=0;bottom=0;right=0;collapsible=0;dropTarget=0;fillColor=none;points=[[0,0.5],[1,0.5]];portConstraint=eastwest;" parent="qc9Q0B2m5h8A3anUrLEf-1" vertex="1">
          <mxGeometry y="40" width="680" height="40" as="geometry" />
        </mxCell>
        <mxCell id="e9ZG9q7FVogHayvx7YNw-72" value="Description" style="shape=partialRectangle;html=1;whiteSpace=wrap;connectable=0;strokeColor=inherit;overflow=hidden;fillColor=none;top=0;left=0;bottom=0;right=0;pointerEvents=1;fontStyle=1" parent="e9ZG9q7FVogHayvx7YNw-71" vertex="1">
          <mxGeometry width="110" height="40" as="geometry">
            <mxRectangle width="110" height="40" as="alternateBounds" />
          </mxGeometry>
        </mxCell>
        <mxCell id="e9ZG9q7FVogHayvx7YNw-73" value="Allows the customer to apply filters to narrow down the search results for laptops" style="shape=partialRectangle;html=1;whiteSpace=wrap;connectable=0;strokeColor=inherit;overflow=hidden;fillColor=none;top=0;left=0;bottom=0;right=0;pointerEvents=1;rowspan=1;colspan=3;" parent="e9ZG9q7FVogHayvx7YNw-71" vertex="1">
          <mxGeometry x="110" width="570" height="40" as="geometry">
            <mxRectangle width="40" height="40" as="alternateBounds" />
          </mxGeometry>
        </mxCell>
        <mxCell id="e9ZG9q7FVogHayvx7YNw-74" style="shape=partialRectangle;html=1;whiteSpace=wrap;connectable=0;strokeColor=inherit;overflow=hidden;fillColor=none;top=0;left=0;bottom=0;right=0;pointerEvents=1;fontStyle=1" parent="e9ZG9q7FVogHayvx7YNw-71" vertex="1" visible="0">
          <mxGeometry x="150" width="110" height="40" as="geometry">
            <mxRectangle width="110" height="40" as="alternateBounds" />
          </mxGeometry>
        </mxCell>
        <mxCell id="e9ZG9q7FVogHayvx7YNw-75" style="shape=partialRectangle;html=1;whiteSpace=wrap;connectable=0;strokeColor=inherit;overflow=hidden;fillColor=none;top=0;left=0;bottom=0;right=0;pointerEvents=1;" parent="e9ZG9q7FVogHayvx7YNw-71" vertex="1" visible="0">
          <mxGeometry x="260" width="420" height="40" as="geometry">
            <mxRectangle width="420" height="40" as="alternateBounds" />
          </mxGeometry>
        </mxCell>
        <mxCell id="qc9Q0B2m5h8A3anUrLEf-7" value="" style="shape=tableRow;horizontal=0;startSize=0;swimlaneHead=0;swimlaneBody=0;strokeColor=inherit;top=0;left=0;bottom=0;right=0;collapsible=0;dropTarget=0;fillColor=none;points=[[0,0.5],[1,0.5]];portConstraint=eastwest;" parent="qc9Q0B2m5h8A3anUrLEf-1" vertex="1">
          <mxGeometry y="80" width="680" height="40" as="geometry" />
        </mxCell>
        <mxCell id="qc9Q0B2m5h8A3anUrLEf-8" value="Actor" style="shape=partialRectangle;html=1;whiteSpace=wrap;connectable=0;strokeColor=inherit;overflow=hidden;fillColor=none;top=0;left=0;bottom=0;right=0;pointerEvents=1;fontStyle=1" parent="qc9Q0B2m5h8A3anUrLEf-7" vertex="1">
          <mxGeometry width="110" height="40" as="geometry">
            <mxRectangle width="110" height="40" as="alternateBounds" />
          </mxGeometry>
        </mxCell>
        <mxCell id="qc9Q0B2m5h8A3anUrLEf-9" value="Customer" style="shape=partialRectangle;html=1;whiteSpace=wrap;connectable=0;strokeColor=inherit;overflow=hidden;fillColor=none;top=0;left=0;bottom=0;right=0;pointerEvents=1;rowspan=1;colspan=3;" parent="qc9Q0B2m5h8A3anUrLEf-7" vertex="1">
          <mxGeometry x="110" width="570" height="40" as="geometry">
            <mxRectangle width="40" height="40" as="alternateBounds" />
          </mxGeometry>
        </mxCell>
        <mxCell id="qc9Q0B2m5h8A3anUrLEf-10" value="" style="shape=partialRectangle;html=1;whiteSpace=wrap;connectable=0;strokeColor=inherit;overflow=hidden;fillColor=none;top=0;left=0;bottom=0;right=0;pointerEvents=1;" parent="qc9Q0B2m5h8A3anUrLEf-7" vertex="1" visible="0">
          <mxGeometry x="150" width="110" height="40" as="geometry">
            <mxRectangle width="110" height="40" as="alternateBounds" />
          </mxGeometry>
        </mxCell>
        <mxCell id="qc9Q0B2m5h8A3anUrLEf-11" value="" style="shape=partialRectangle;html=1;whiteSpace=wrap;connectable=0;strokeColor=inherit;overflow=hidden;fillColor=none;top=0;left=0;bottom=0;right=0;pointerEvents=1;" parent="qc9Q0B2m5h8A3anUrLEf-7" vertex="1" visible="0">
          <mxGeometry x="260" width="420" height="40" as="geometry">
            <mxRectangle width="420" height="40" as="alternateBounds" />
          </mxGeometry>
        </mxCell>
        <mxCell id="K6Q-J-noCk0XGYmEDmHN-1" style="shape=tableRow;horizontal=0;startSize=0;swimlaneHead=0;swimlaneBody=0;strokeColor=inherit;top=0;left=0;bottom=0;right=0;collapsible=0;dropTarget=0;fillColor=none;points=[[0,0.5],[1,0.5]];portConstraint=eastwest;" parent="qc9Q0B2m5h8A3anUrLEf-1" vertex="1">
          <mxGeometry y="120" width="680" height="40" as="geometry" />
        </mxCell>
        <mxCell id="K6Q-J-noCk0XGYmEDmHN-2" value="Trigger" style="shape=partialRectangle;html=1;whiteSpace=wrap;connectable=0;strokeColor=inherit;overflow=hidden;fillColor=none;top=0;left=0;bottom=0;right=0;pointerEvents=1;fontStyle=1" parent="K6Q-J-noCk0XGYmEDmHN-1" vertex="1">
          <mxGeometry width="110" height="40" as="geometry">
            <mxRectangle width="110" height="40" as="alternateBounds" />
          </mxGeometry>
        </mxCell>
        <mxCell id="K6Q-J-noCk0XGYmEDmHN-3" value="The customer initiates the action to filter laptops by selecting filter options" style="shape=partialRectangle;html=1;whiteSpace=wrap;connectable=0;strokeColor=inherit;overflow=hidden;fillColor=none;top=0;left=0;bottom=0;right=0;pointerEvents=1;rowspan=1;colspan=3;" parent="K6Q-J-noCk0XGYmEDmHN-1" vertex="1">
          <mxGeometry x="110" width="570" height="40" as="geometry">
            <mxRectangle width="40" height="40" as="alternateBounds" />
          </mxGeometry>
        </mxCell>
        <mxCell id="K6Q-J-noCk0XGYmEDmHN-4" style="shape=partialRectangle;html=1;whiteSpace=wrap;connectable=0;strokeColor=inherit;overflow=hidden;fillColor=none;top=0;left=0;bottom=0;right=0;pointerEvents=1;" parent="K6Q-J-noCk0XGYmEDmHN-1" vertex="1" visible="0">
          <mxGeometry x="150" width="110" height="40" as="geometry">
            <mxRectangle width="110" height="40" as="alternateBounds" />
          </mxGeometry>
        </mxCell>
        <mxCell id="K6Q-J-noCk0XGYmEDmHN-5" style="shape=partialRectangle;html=1;whiteSpace=wrap;connectable=0;strokeColor=inherit;overflow=hidden;fillColor=none;top=0;left=0;bottom=0;right=0;pointerEvents=1;" parent="K6Q-J-noCk0XGYmEDmHN-1" vertex="1" visible="0">
          <mxGeometry x="260" width="420" height="40" as="geometry">
            <mxRectangle width="420" height="40" as="alternateBounds" />
          </mxGeometry>
        </mxCell>
        <mxCell id="qc9Q0B2m5h8A3anUrLEf-12" value="" style="shape=tableRow;horizontal=0;startSize=0;swimlaneHead=0;swimlaneBody=0;strokeColor=inherit;top=0;left=0;bottom=0;right=0;collapsible=0;dropTarget=0;fillColor=none;points=[[0,0.5],[1,0.5]];portConstraint=eastwest;" parent="qc9Q0B2m5h8A3anUrLEf-1" vertex="1">
          <mxGeometry y="160" width="680" height="40" as="geometry" />
        </mxCell>
        <mxCell id="qc9Q0B2m5h8A3anUrLEf-13" value="&lt;b&gt;Pre-Condition&lt;/b&gt;" style="shape=partialRectangle;html=1;whiteSpace=wrap;connectable=0;strokeColor=inherit;overflow=hidden;fillColor=none;top=0;left=0;bottom=0;right=0;pointerEvents=1;" parent="qc9Q0B2m5h8A3anUrLEf-12" vertex="1">
          <mxGeometry width="110" height="40" as="geometry">
            <mxRectangle width="110" height="40" as="alternateBounds" />
          </mxGeometry>
        </mxCell>
        <mxCell id="qc9Q0B2m5h8A3anUrLEf-14" value="None" style="shape=partialRectangle;html=1;whiteSpace=wrap;connectable=0;strokeColor=inherit;overflow=hidden;fillColor=none;top=0;left=0;bottom=0;right=0;pointerEvents=1;rowspan=1;colspan=3;" parent="qc9Q0B2m5h8A3anUrLEf-12" vertex="1">
          <mxGeometry x="110" width="570" height="40" as="geometry">
            <mxRectangle width="40" height="40" as="alternateBounds" />
          </mxGeometry>
        </mxCell>
        <mxCell id="qc9Q0B2m5h8A3anUrLEf-15" value="" style="shape=partialRectangle;html=1;whiteSpace=wrap;connectable=0;strokeColor=inherit;overflow=hidden;fillColor=none;top=0;left=0;bottom=0;right=0;pointerEvents=1;" parent="qc9Q0B2m5h8A3anUrLEf-12" vertex="1" visible="0">
          <mxGeometry x="150" width="110" height="40" as="geometry">
            <mxRectangle width="110" height="40" as="alternateBounds" />
          </mxGeometry>
        </mxCell>
        <mxCell id="qc9Q0B2m5h8A3anUrLEf-16" value="" style="shape=partialRectangle;html=1;whiteSpace=wrap;connectable=0;strokeColor=inherit;overflow=hidden;fillColor=none;top=0;left=0;bottom=0;right=0;pointerEvents=1;" parent="qc9Q0B2m5h8A3anUrLEf-12" vertex="1" visible="0">
          <mxGeometry x="260" width="420" height="40" as="geometry">
            <mxRectangle width="420" height="40" as="alternateBounds" />
          </mxGeometry>
        </mxCell>
        <mxCell id="e9ZG9q7FVogHayvx7YNw-66" style="shape=tableRow;horizontal=0;startSize=0;swimlaneHead=0;swimlaneBody=0;strokeColor=inherit;top=0;left=0;bottom=0;right=0;collapsible=0;dropTarget=0;fillColor=none;points=[[0,0.5],[1,0.5]];portConstraint=eastwest;" parent="qc9Q0B2m5h8A3anUrLEf-1" vertex="1">
          <mxGeometry y="200" width="680" height="40" as="geometry" />
        </mxCell>
        <mxCell id="e9ZG9q7FVogHayvx7YNw-67" value="&lt;b&gt;Post-Condition&lt;/b&gt;" style="shape=partialRectangle;html=1;whiteSpace=wrap;connectable=0;strokeColor=inherit;overflow=hidden;fillColor=none;top=0;left=0;bottom=0;right=0;pointerEvents=1;" parent="e9ZG9q7FVogHayvx7YNw-66" vertex="1">
          <mxGeometry width="110" height="40" as="geometry">
            <mxRectangle width="110" height="40" as="alternateBounds" />
          </mxGeometry>
        </mxCell>
        <mxCell id="e9ZG9q7FVogHayvx7YNw-68" value="&lt;div align=&quot;left&quot;&gt;&lt;ul&gt;&lt;li&gt;The customer successfully applies filters and finds laptops that match the selected criteria&lt;/li&gt;&lt;/ul&gt;&lt;/div&gt;" style="shape=partialRectangle;html=1;whiteSpace=wrap;connectable=0;strokeColor=inherit;overflow=hidden;fillColor=none;top=0;left=0;bottom=0;right=0;pointerEvents=1;rowspan=1;colspan=3;align=left;" parent="e9ZG9q7FVogHayvx7YNw-66" vertex="1">
          <mxGeometry x="110" width="570" height="40" as="geometry">
            <mxRectangle width="40" height="40" as="alternateBounds" />
          </mxGeometry>
        </mxCell>
        <mxCell id="e9ZG9q7FVogHayvx7YNw-69" style="shape=partialRectangle;html=1;whiteSpace=wrap;connectable=0;strokeColor=inherit;overflow=hidden;fillColor=none;top=0;left=0;bottom=0;right=0;pointerEvents=1;" parent="e9ZG9q7FVogHayvx7YNw-66" vertex="1" visible="0">
          <mxGeometry x="150" width="110" height="40" as="geometry">
            <mxRectangle width="110" height="40" as="alternateBounds" />
          </mxGeometry>
        </mxCell>
        <mxCell id="e9ZG9q7FVogHayvx7YNw-70" style="shape=partialRectangle;html=1;whiteSpace=wrap;connectable=0;strokeColor=inherit;overflow=hidden;fillColor=none;top=0;left=0;bottom=0;right=0;pointerEvents=1;" parent="e9ZG9q7FVogHayvx7YNw-66" vertex="1" visible="0">
          <mxGeometry x="260" width="420" height="40" as="geometry">
            <mxRectangle width="420" height="40" as="alternateBounds" />
          </mxGeometry>
        </mxCell>
        <mxCell id="qc9Q0B2m5h8A3anUrLEf-17" value="" style="shape=tableRow;horizontal=0;startSize=0;swimlaneHead=0;swimlaneBody=0;strokeColor=inherit;top=0;left=0;bottom=0;right=0;collapsible=0;dropTarget=0;fillColor=none;points=[[0,0.5],[1,0.5]];portConstraint=eastwest;" parent="qc9Q0B2m5h8A3anUrLEf-1" vertex="1">
          <mxGeometry y="240" width="680" height="40" as="geometry" />
        </mxCell>
        <mxCell id="qc9Q0B2m5h8A3anUrLEf-18" value="Basic Flow" style="shape=partialRectangle;html=1;whiteSpace=wrap;connectable=0;strokeColor=inherit;overflow=hidden;fillColor=none;top=0;left=0;bottom=0;right=0;pointerEvents=1;fontStyle=1;rowspan=6;colspan=1;" parent="qc9Q0B2m5h8A3anUrLEf-17" vertex="1">
          <mxGeometry width="110" height="240" as="geometry">
            <mxRectangle width="110" height="40" as="alternateBounds" />
          </mxGeometry>
        </mxCell>
        <mxCell id="qc9Q0B2m5h8A3anUrLEf-19" value="Step" style="shape=partialRectangle;html=1;whiteSpace=wrap;connectable=0;strokeColor=inherit;overflow=hidden;fillColor=none;top=0;left=0;bottom=0;right=0;pointerEvents=1;" parent="qc9Q0B2m5h8A3anUrLEf-17" vertex="1">
          <mxGeometry x="110" width="40" height="40" as="geometry">
            <mxRectangle width="40" height="40" as="alternateBounds" />
          </mxGeometry>
        </mxCell>
        <mxCell id="qc9Q0B2m5h8A3anUrLEf-20" value="Performed by" style="shape=partialRectangle;html=1;whiteSpace=wrap;connectable=0;strokeColor=inherit;overflow=hidden;fillColor=none;top=0;left=0;bottom=0;right=0;pointerEvents=1;" parent="qc9Q0B2m5h8A3anUrLEf-17" vertex="1">
          <mxGeometry x="150" width="110" height="40" as="geometry">
            <mxRectangle width="110" height="40" as="alternateBounds" />
          </mxGeometry>
        </mxCell>
        <mxCell id="qc9Q0B2m5h8A3anUrLEf-21" value="Action" style="shape=partialRectangle;html=1;whiteSpace=wrap;connectable=0;strokeColor=inherit;overflow=hidden;fillColor=none;top=0;left=0;bottom=0;right=0;pointerEvents=1;" parent="qc9Q0B2m5h8A3anUrLEf-17" vertex="1">
          <mxGeometry x="260" width="420" height="40" as="geometry">
            <mxRectangle width="420" height="40" as="alternateBounds" />
          </mxGeometry>
        </mxCell>
        <mxCell id="0q1HO9-gAJCns06K1bvI-11" style="shape=tableRow;horizontal=0;startSize=0;swimlaneHead=0;swimlaneBody=0;strokeColor=inherit;top=0;left=0;bottom=0;right=0;collapsible=0;dropTarget=0;fillColor=none;points=[[0,0.5],[1,0.5]];portConstraint=eastwest;" parent="qc9Q0B2m5h8A3anUrLEf-1" vertex="1">
          <mxGeometry y="280" width="680" height="40" as="geometry" />
        </mxCell>
        <mxCell id="0q1HO9-gAJCns06K1bvI-12" style="shape=partialRectangle;html=1;whiteSpace=wrap;connectable=0;strokeColor=inherit;overflow=hidden;fillColor=none;top=0;left=0;bottom=0;right=0;pointerEvents=1;" parent="0q1HO9-gAJCns06K1bvI-11" visible="0" vertex="1">
          <mxGeometry width="110" height="40" as="geometry">
            <mxRectangle width="110" height="40" as="alternateBounds" />
          </mxGeometry>
        </mxCell>
        <mxCell id="0q1HO9-gAJCns06K1bvI-13" value="1" style="shape=partialRectangle;html=1;whiteSpace=wrap;connectable=0;strokeColor=inherit;overflow=hidden;fillColor=none;top=0;left=0;bottom=0;right=0;pointerEvents=1;" parent="0q1HO9-gAJCns06K1bvI-11" vertex="1">
          <mxGeometry x="110" width="40" height="40" as="geometry">
            <mxRectangle width="40" height="40" as="alternateBounds" />
          </mxGeometry>
        </mxCell>
        <mxCell id="0q1HO9-gAJCns06K1bvI-14" value="Customer" style="shape=partialRectangle;html=1;whiteSpace=wrap;connectable=0;strokeColor=inherit;overflow=hidden;fillColor=none;top=0;left=0;bottom=0;right=0;pointerEvents=1;" parent="0q1HO9-gAJCns06K1bvI-11" vertex="1">
          <mxGeometry x="150" width="110" height="40" as="geometry">
            <mxRectangle width="110" height="40" as="alternateBounds" />
          </mxGeometry>
        </mxCell>
        <mxCell id="0q1HO9-gAJCns06K1bvI-15" value="Clicks on the &lt;i&gt;New&lt;/i&gt;&lt;span data-end=&quot;523&quot; data-start=&quot;497&quot;&gt;&lt;i&gt;&amp;nbsp;Products&lt;/i&gt;&lt;/span&gt;&amp;nbsp;tab name on the homepage" style="shape=partialRectangle;html=1;whiteSpace=wrap;connectable=0;strokeColor=inherit;overflow=hidden;fillColor=none;top=0;left=0;bottom=0;right=0;pointerEvents=1;" parent="0q1HO9-gAJCns06K1bvI-11" vertex="1">
          <mxGeometry x="260" width="420" height="40" as="geometry">
            <mxRectangle width="420" height="40" as="alternateBounds" />
          </mxGeometry>
        </mxCell>
        <mxCell id="qc9Q0B2m5h8A3anUrLEf-27" value="" style="shape=tableRow;horizontal=0;startSize=0;swimlaneHead=0;swimlaneBody=0;strokeColor=inherit;top=0;left=0;bottom=0;right=0;collapsible=0;dropTarget=0;fillColor=none;points=[[0,0.5],[1,0.5]];portConstraint=eastwest;" parent="qc9Q0B2m5h8A3anUrLEf-1" vertex="1">
          <mxGeometry y="320" width="680" height="40" as="geometry" />
        </mxCell>
        <mxCell id="qc9Q0B2m5h8A3anUrLEf-28" value="" style="shape=partialRectangle;html=1;whiteSpace=wrap;connectable=0;strokeColor=inherit;overflow=hidden;fillColor=none;top=0;left=0;bottom=0;right=0;pointerEvents=1;" parent="qc9Q0B2m5h8A3anUrLEf-27" vertex="1" visible="0">
          <mxGeometry width="110" height="40" as="geometry">
            <mxRectangle width="110" height="40" as="alternateBounds" />
          </mxGeometry>
        </mxCell>
        <mxCell id="qc9Q0B2m5h8A3anUrLEf-29" value="2" style="shape=partialRectangle;html=1;whiteSpace=wrap;connectable=0;strokeColor=inherit;overflow=hidden;fillColor=none;top=0;left=0;bottom=0;right=0;pointerEvents=1;" parent="qc9Q0B2m5h8A3anUrLEf-27" vertex="1">
          <mxGeometry x="110" width="40" height="40" as="geometry">
            <mxRectangle width="40" height="40" as="alternateBounds" />
          </mxGeometry>
        </mxCell>
        <mxCell id="qc9Q0B2m5h8A3anUrLEf-30" value="System" style="shape=partialRectangle;html=1;whiteSpace=wrap;connectable=0;strokeColor=inherit;overflow=hidden;fillColor=none;top=0;left=0;bottom=0;right=0;pointerEvents=1;" parent="qc9Q0B2m5h8A3anUrLEf-27" vertex="1">
          <mxGeometry x="150" width="110" height="40" as="geometry">
            <mxRectangle width="110" height="40" as="alternateBounds" />
          </mxGeometry>
        </mxCell>
        <mxCell id="qc9Q0B2m5h8A3anUrLEf-31" value="Navigates to the Catalog page displaying all products" style="shape=partialRectangle;html=1;whiteSpace=wrap;connectable=0;strokeColor=inherit;overflow=hidden;fillColor=none;top=0;left=0;bottom=0;right=0;pointerEvents=1;" parent="qc9Q0B2m5h8A3anUrLEf-27" vertex="1">
          <mxGeometry x="260" width="420" height="40" as="geometry">
            <mxRectangle width="420" height="40" as="alternateBounds" />
          </mxGeometry>
        </mxCell>
        <mxCell id="0q1HO9-gAJCns06K1bvI-6" style="shape=tableRow;horizontal=0;startSize=0;swimlaneHead=0;swimlaneBody=0;strokeColor=inherit;top=0;left=0;bottom=0;right=0;collapsible=0;dropTarget=0;fillColor=none;points=[[0,0.5],[1,0.5]];portConstraint=eastwest;" parent="qc9Q0B2m5h8A3anUrLEf-1" vertex="1">
          <mxGeometry y="360" width="680" height="40" as="geometry" />
        </mxCell>
        <mxCell id="0q1HO9-gAJCns06K1bvI-7" value="" style="shape=partialRectangle;html=1;whiteSpace=wrap;connectable=0;strokeColor=inherit;overflow=hidden;fillColor=none;top=0;left=0;bottom=0;right=0;pointerEvents=1;" parent="0q1HO9-gAJCns06K1bvI-6" visible="0" vertex="1">
          <mxGeometry width="110" height="40" as="geometry">
            <mxRectangle width="110" height="40" as="alternateBounds" />
          </mxGeometry>
        </mxCell>
        <mxCell id="0q1HO9-gAJCns06K1bvI-8" value="3" style="shape=partialRectangle;html=1;whiteSpace=wrap;connectable=0;strokeColor=inherit;overflow=hidden;fillColor=none;top=0;left=0;bottom=0;right=0;pointerEvents=1;" parent="0q1HO9-gAJCns06K1bvI-6" vertex="1">
          <mxGeometry x="110" width="40" height="40" as="geometry">
            <mxRectangle width="40" height="40" as="alternateBounds" />
          </mxGeometry>
        </mxCell>
        <mxCell id="0q1HO9-gAJCns06K1bvI-9" value="Customer" style="shape=partialRectangle;html=1;whiteSpace=wrap;connectable=0;strokeColor=inherit;overflow=hidden;fillColor=none;top=0;left=0;bottom=0;right=0;pointerEvents=1;" parent="0q1HO9-gAJCns06K1bvI-6" vertex="1">
          <mxGeometry x="150" width="110" height="40" as="geometry">
            <mxRectangle width="110" height="40" as="alternateBounds" />
          </mxGeometry>
        </mxCell>
        <mxCell id="0q1HO9-gAJCns06K1bvI-10" value="Selects the desired filter options (e.g., brand, price range)" style="shape=partialRectangle;html=1;whiteSpace=wrap;connectable=0;strokeColor=inherit;overflow=hidden;fillColor=none;top=0;left=0;bottom=0;right=0;pointerEvents=1;" parent="0q1HO9-gAJCns06K1bvI-6" vertex="1">
          <mxGeometry x="260" width="420" height="40" as="geometry">
            <mxRectangle width="420" height="40" as="alternateBounds" />
          </mxGeometry>
        </mxCell>
        <mxCell id="0q1HO9-gAJCns06K1bvI-1" style="shape=tableRow;horizontal=0;startSize=0;swimlaneHead=0;swimlaneBody=0;strokeColor=inherit;top=0;left=0;bottom=0;right=0;collapsible=0;dropTarget=0;fillColor=none;points=[[0,0.5],[1,0.5]];portConstraint=eastwest;" parent="qc9Q0B2m5h8A3anUrLEf-1" vertex="1">
          <mxGeometry y="400" width="680" height="40" as="geometry" />
        </mxCell>
        <mxCell id="0q1HO9-gAJCns06K1bvI-2" value="" style="shape=partialRectangle;html=1;whiteSpace=wrap;connectable=0;strokeColor=inherit;overflow=hidden;fillColor=none;top=0;left=0;bottom=0;right=0;pointerEvents=1;" parent="0q1HO9-gAJCns06K1bvI-1" visible="0" vertex="1">
          <mxGeometry width="110" height="40" as="geometry">
            <mxRectangle width="110" height="40" as="alternateBounds" />
          </mxGeometry>
        </mxCell>
        <mxCell id="0q1HO9-gAJCns06K1bvI-3" value="4" style="shape=partialRectangle;html=1;whiteSpace=wrap;connectable=0;strokeColor=inherit;overflow=hidden;fillColor=none;top=0;left=0;bottom=0;right=0;pointerEvents=1;" parent="0q1HO9-gAJCns06K1bvI-1" vertex="1">
          <mxGeometry x="110" width="40" height="40" as="geometry">
            <mxRectangle width="40" height="40" as="alternateBounds" />
          </mxGeometry>
        </mxCell>
        <mxCell id="0q1HO9-gAJCns06K1bvI-4" value="Customer" style="shape=partialRectangle;html=1;whiteSpace=wrap;connectable=0;strokeColor=inherit;overflow=hidden;fillColor=none;top=0;left=0;bottom=0;right=0;pointerEvents=1;" parent="0q1HO9-gAJCns06K1bvI-1" vertex="1">
          <mxGeometry x="150" width="110" height="40" as="geometry">
            <mxRectangle width="110" height="40" as="alternateBounds" />
          </mxGeometry>
        </mxCell>
        <mxCell id="0q1HO9-gAJCns06K1bvI-5" value="Clicks &lt;span data-end=&quot;761&quot; data-start=&quot;742&quot;&gt;&quot;Apply Filters&quot;&lt;/span&gt; to update the search results." style="shape=partialRectangle;html=1;whiteSpace=wrap;connectable=0;strokeColor=inherit;overflow=hidden;fillColor=none;top=0;left=0;bottom=0;right=0;pointerEvents=1;" parent="0q1HO9-gAJCns06K1bvI-1" vertex="1">
          <mxGeometry x="260" width="420" height="40" as="geometry">
            <mxRectangle width="420" height="40" as="alternateBounds" />
          </mxGeometry>
        </mxCell>
        <mxCell id="tmoAWZopvpi-jpbeTA9A-1" style="shape=tableRow;horizontal=0;startSize=0;swimlaneHead=0;swimlaneBody=0;strokeColor=inherit;top=0;left=0;bottom=0;right=0;collapsible=0;dropTarget=0;fillColor=none;points=[[0,0.5],[1,0.5]];portConstraint=eastwest;" parent="qc9Q0B2m5h8A3anUrLEf-1" vertex="1">
          <mxGeometry y="440" width="680" height="40" as="geometry" />
        </mxCell>
        <mxCell id="tmoAWZopvpi-jpbeTA9A-2" style="shape=partialRectangle;html=1;whiteSpace=wrap;connectable=0;strokeColor=inherit;overflow=hidden;fillColor=none;top=0;left=0;bottom=0;right=0;pointerEvents=1;" parent="tmoAWZopvpi-jpbeTA9A-1" visible="0" vertex="1">
          <mxGeometry width="110" height="40" as="geometry">
            <mxRectangle width="110" height="40" as="alternateBounds" />
          </mxGeometry>
        </mxCell>
        <mxCell id="tmoAWZopvpi-jpbeTA9A-3" value="5" style="shape=partialRectangle;html=1;whiteSpace=wrap;connectable=0;strokeColor=inherit;overflow=hidden;fillColor=none;top=0;left=0;bottom=0;right=0;pointerEvents=1;" parent="tmoAWZopvpi-jpbeTA9A-1" vertex="1">
          <mxGeometry x="110" width="40" height="40" as="geometry">
            <mxRectangle width="40" height="40" as="alternateBounds" />
          </mxGeometry>
        </mxCell>
        <mxCell id="tmoAWZopvpi-jpbeTA9A-4" value="System" style="shape=partialRectangle;html=1;whiteSpace=wrap;connectable=0;strokeColor=inherit;overflow=hidden;fillColor=none;top=0;left=0;bottom=0;right=0;pointerEvents=1;" parent="tmoAWZopvpi-jpbeTA9A-1" vertex="1">
          <mxGeometry x="150" width="110" height="40" as="geometry">
            <mxRectangle width="110" height="40" as="alternateBounds" />
          </mxGeometry>
        </mxCell>
        <mxCell id="tmoAWZopvpi-jpbeTA9A-5" value="Displays the products that match the selected filters" style="shape=partialRectangle;html=1;whiteSpace=wrap;connectable=0;strokeColor=inherit;overflow=hidden;fillColor=none;top=0;left=0;bottom=0;right=0;pointerEvents=1;" parent="tmoAWZopvpi-jpbeTA9A-1" vertex="1">
          <mxGeometry x="260" width="420" height="40" as="geometry">
            <mxRectangle width="420" height="40" as="alternateBounds" />
          </mxGeometry>
        </mxCell>
        <mxCell id="e9ZG9q7FVogHayvx7YNw-76" style="shape=tableRow;horizontal=0;startSize=0;swimlaneHead=0;swimlaneBody=0;strokeColor=inherit;top=0;left=0;bottom=0;right=0;collapsible=0;dropTarget=0;fillColor=none;points=[[0,0.5],[1,0.5]];portConstraint=eastwest;" parent="qc9Q0B2m5h8A3anUrLEf-1" vertex="1">
          <mxGeometry y="480" width="680" height="40" as="geometry" />
        </mxCell>
        <mxCell id="e9ZG9q7FVogHayvx7YNw-77" value="Exception Flow" style="shape=partialRectangle;html=1;whiteSpace=wrap;connectable=0;strokeColor=inherit;overflow=hidden;fillColor=none;top=0;left=0;bottom=0;right=0;pointerEvents=1;fontStyle=1;rowspan=3;colspan=1;" parent="e9ZG9q7FVogHayvx7YNw-76" vertex="1">
          <mxGeometry width="110" height="140" as="geometry">
            <mxRectangle width="110" height="40" as="alternateBounds" />
          </mxGeometry>
        </mxCell>
        <mxCell id="e9ZG9q7FVogHayvx7YNw-78" value="5a" style="shape=partialRectangle;html=1;whiteSpace=wrap;connectable=0;strokeColor=inherit;overflow=hidden;fillColor=none;top=0;left=0;bottom=0;right=0;pointerEvents=1;" parent="e9ZG9q7FVogHayvx7YNw-76" vertex="1">
          <mxGeometry x="110" width="40" height="40" as="geometry">
            <mxRectangle width="40" height="40" as="alternateBounds" />
          </mxGeometry>
        </mxCell>
        <mxCell id="e9ZG9q7FVogHayvx7YNw-79" value="System" style="shape=partialRectangle;html=1;whiteSpace=wrap;connectable=0;strokeColor=inherit;overflow=hidden;fillColor=none;top=0;left=0;bottom=0;right=0;pointerEvents=1;" parent="e9ZG9q7FVogHayvx7YNw-76" vertex="1">
          <mxGeometry x="150" width="110" height="40" as="geometry">
            <mxRectangle width="110" height="40" as="alternateBounds" />
          </mxGeometry>
        </mxCell>
        <mxCell id="e9ZG9q7FVogHayvx7YNw-80" value="If no matching results are found: displays no products" style="shape=partialRectangle;html=1;whiteSpace=wrap;connectable=0;strokeColor=inherit;overflow=hidden;fillColor=none;top=0;left=0;bottom=0;right=0;pointerEvents=1;" parent="e9ZG9q7FVogHayvx7YNw-76" vertex="1">
          <mxGeometry x="260" width="420" height="40" as="geometry">
            <mxRectangle width="420" height="40" as="alternateBounds" />
          </mxGeometry>
        </mxCell>
        <mxCell id="qc9Q0B2m5h8A3anUrLEf-32" value="" style="shape=tableRow;horizontal=0;startSize=0;swimlaneHead=0;swimlaneBody=0;strokeColor=inherit;top=0;left=0;bottom=0;right=0;collapsible=0;dropTarget=0;fillColor=none;points=[[0,0.5],[1,0.5]];portConstraint=eastwest;" parent="qc9Q0B2m5h8A3anUrLEf-1" vertex="1">
          <mxGeometry y="520" width="680" height="40" as="geometry" />
        </mxCell>
        <mxCell id="qc9Q0B2m5h8A3anUrLEf-33" value="" style="shape=partialRectangle;html=1;whiteSpace=wrap;connectable=0;strokeColor=inherit;overflow=hidden;fillColor=none;top=0;left=0;bottom=0;right=0;pointerEvents=1;fontStyle=1" parent="qc9Q0B2m5h8A3anUrLEf-32" vertex="1" visible="0">
          <mxGeometry width="110" height="40" as="geometry">
            <mxRectangle width="110" height="40" as="alternateBounds" />
          </mxGeometry>
        </mxCell>
        <mxCell id="qc9Q0B2m5h8A3anUrLEf-34" value="5b" style="shape=partialRectangle;html=1;whiteSpace=wrap;connectable=0;strokeColor=inherit;overflow=hidden;fillColor=none;top=0;left=0;bottom=0;right=0;pointerEvents=1;" parent="qc9Q0B2m5h8A3anUrLEf-32" vertex="1">
          <mxGeometry x="110" width="40" height="40" as="geometry">
            <mxRectangle width="40" height="40" as="alternateBounds" />
          </mxGeometry>
        </mxCell>
        <mxCell id="qc9Q0B2m5h8A3anUrLEf-35" value="System" style="shape=partialRectangle;html=1;whiteSpace=wrap;connectable=0;strokeColor=inherit;overflow=hidden;fillColor=none;top=0;left=0;bottom=0;right=0;pointerEvents=1;" parent="qc9Q0B2m5h8A3anUrLEf-32" vertex="1">
          <mxGeometry x="150" width="110" height="40" as="geometry">
            <mxRectangle width="110" height="40" as="alternateBounds" />
          </mxGeometry>
        </mxCell>
        <mxCell id="qc9Q0B2m5h8A3anUrLEf-36" value="If a product is out of stock: do not display it in the filtered results" style="shape=partialRectangle;html=1;whiteSpace=wrap;connectable=0;strokeColor=inherit;overflow=hidden;fillColor=none;top=0;left=0;bottom=0;right=0;pointerEvents=1;" parent="qc9Q0B2m5h8A3anUrLEf-32" vertex="1">
          <mxGeometry x="260" width="420" height="40" as="geometry">
            <mxRectangle width="420" height="40" as="alternateBounds" />
          </mxGeometry>
        </mxCell>
        <mxCell id="KFTDKMQoR5ij9oHQgmGm-1" style="shape=tableRow;horizontal=0;startSize=0;swimlaneHead=0;swimlaneBody=0;strokeColor=inherit;top=0;left=0;bottom=0;right=0;collapsible=0;dropTarget=0;fillColor=none;points=[[0,0.5],[1,0.5]];portConstraint=eastwest;" vertex="1" parent="qc9Q0B2m5h8A3anUrLEf-1">
          <mxGeometry y="560" width="680" height="60" as="geometry" />
        </mxCell>
        <mxCell id="KFTDKMQoR5ij9oHQgmGm-2" style="shape=partialRectangle;html=1;whiteSpace=wrap;connectable=0;strokeColor=inherit;overflow=hidden;fillColor=none;top=0;left=0;bottom=0;right=0;pointerEvents=1;fontStyle=1" vertex="1" visible="0" parent="KFTDKMQoR5ij9oHQgmGm-1">
          <mxGeometry width="110" height="60" as="geometry">
            <mxRectangle width="110" height="60" as="alternateBounds" />
          </mxGeometry>
        </mxCell>
        <mxCell id="KFTDKMQoR5ij9oHQgmGm-3" value="5c" style="shape=partialRectangle;html=1;whiteSpace=wrap;connectable=0;strokeColor=inherit;overflow=hidden;fillColor=none;top=0;left=0;bottom=0;right=0;pointerEvents=1;" vertex="1" parent="KFTDKMQoR5ij9oHQgmGm-1">
          <mxGeometry x="110" width="40" height="60" as="geometry">
            <mxRectangle width="40" height="60" as="alternateBounds" />
          </mxGeometry>
        </mxCell>
        <mxCell id="KFTDKMQoR5ij9oHQgmGm-4" value="System" style="shape=partialRectangle;html=1;whiteSpace=wrap;connectable=0;strokeColor=inherit;overflow=hidden;fillColor=none;top=0;left=0;bottom=0;right=0;pointerEvents=1;" vertex="1" parent="KFTDKMQoR5ij9oHQgmGm-1">
          <mxGeometry x="150" width="110" height="60" as="geometry">
            <mxRectangle width="110" height="60" as="alternateBounds" />
          </mxGeometry>
        </mxCell>
        <mxCell id="KFTDKMQoR5ij9oHQgmGm-5" value="&lt;p style=&quot;white-space: pre-wrap;&quot; dir=&quot;auto&quot;&gt;If there is a system error during product filtering (e.g., database failure), display an error message: &quot;Unable to filter products. Please try again later.&quot;&lt;/p&gt;" style="shape=partialRectangle;html=1;whiteSpace=wrap;connectable=0;strokeColor=inherit;overflow=hidden;fillColor=none;top=0;left=0;bottom=0;right=0;pointerEvents=1;" vertex="1" parent="KFTDKMQoR5ij9oHQgmGm-1">
          <mxGeometry x="260" width="420" height="60" as="geometry">
            <mxRectangle width="420" height="60" as="alternateBounds" />
          </mxGeometry>
        </mxCell>
      </root>
    </mxGraphModel>
  </diagram>
</mxfile>
